<svg width="720" height="504" viewBox="0 0 720 504" fill="none" xmlns="http://www.w3.org/2000/svg">
<g clip-path="url(#clip0_735_9072)">
<path fill-rule="evenodd" clip-rule="evenodd" d="M179.744 74.0631L0 252C35.9521 287.591 77.0218 317.587 121.8 341.053C134.176 373.554 153.577 404.033 180 430.191C279.412 528.602 440.59 528.602 540 430.191C566.424 404.033 585.824 373.554 598.201 341.051C642.978 317.587 684.049 287.591 720 252L540.401 74.2078C540.268 74.0748 540.135 73.9418 540 73.809C440.59 -24.603 279.412 -24.603 180 73.809C179.915 73.8937 179.829 73.9783 179.744 74.0631ZM522.801 373.156C470.421 390.656 415.435 399.618 360 399.618C304.565 399.618 249.581 390.656 197.201 373.156C202.876 380.61 209.142 387.763 216 394.553C295.529 473.283 424.471 473.283 504 394.553C510.858 387.763 517.126 380.61 522.801 373.156ZM219.692 105.883C233.197 114.716 247.558 122.274 262.584 128.436C293.468 141.101 326.57 147.619 360 147.619C393.43 147.619 426.532 141.101 457.416 128.436C472.442 122.274 486.803 114.716 500.31 105.883C421.772 31.9055 298.228 31.9057 219.692 105.883Z" fill="#212143"/>
</g>
<defs>
<clipPath id="clip0_735_9072">
<rect width="720" height="504" fill="white"/>
</clipPath>
</defs>
</svg>
